<?xml version="1.0" standalone="no"?>
<!DOCTYPE svg PUBLIC "-//W3C//DTD SVG 20010904//EN"
 "http://www.w3.org/TR/2001/REC-SVG-20010904/DTD/svg10.dtd">
<svg version="1.0" xmlns="http://www.w3.org/2000/svg"
 width="1982.000000pt" height="1416.000000pt" viewBox="0 0 982.000000 416.000000"
 preserveAspectRatio="xMidYMid meet">
<metadata>
Created by potrace 1.15, written by Peter Selinger 2001-2017
</metadata>
<g transform="translate(0.000000,416.000000) scale(0.100000,-0.100000)"
fill="#000000" stroke="none">
<path d="M8669 2971 c-85 -33 -135 -75 -170 -146 -28 -58 -31 -71 -28 -138 4
-62 9 -82 39 -131 30 -50 133 -146 157 -146 3 0 14 -7 22 -14 9 -8 80 -47 157
-85 154 -77 205 -120 223 -188 18 -67 -22 -160 -84 -192 -97 -52 -152 -53
-285 -5 -21 7 -73 68 -123 143 -52 79 -73 95 -105 78 -13 -7 -31 -24 -40 -39
-13 -22 -14 -33 -3 -68 21 -71 102 -137 218 -176 62 -22 260 -23 316 -2 124
47 217 170 217 288 0 133 -90 238 -295 342 -187 95 -246 137 -284 198 -43 71
-17 164 61 215 37 25 53 29 118 29 51 1 86 -5 111 -16 48 -23 111 -94 147
-165 17 -32 42 -69 56 -82 l26 -24 0 95 c0 92 -12 152 -34 173 -22 21 -66 37
-172 64 -63 17 -192 12 -245 -8z"/>
<path d="M3300 2955 c-101 -28 -158 -72 -202 -155 -32 -62 -33 -186 -1 -245
22 -41 105 -126 158 -162 25 -17 173 -97 297 -160 15 -8 47 -33 71 -57 48 -46
61 -88 47 -150 -23 -103 -101 -156 -231 -156 -113 0 -174 38 -239 150 -40 69
-80 110 -107 110 -7 0 -25 -7 -38 -16 -20 -13 -25 -25 -25 -61 0 -88 62 -154
200 -211 14 -5 63 -16 110 -22 181 -26 341 46 413 185 31 61 30 185 -3 249
-39 76 -125 145 -278 222 -144 73 -238 136 -267 181 -12 18 -18 47 -18 85 0
50 4 64 30 95 44 55 87 75 164 77 116 2 179 -44 264 -192 59 -101 80 -112 79
-37 -1 98 -16 194 -33 208 -16 14 -105 44 -194 66 -59 14 -138 12 -197 -4z"/>
<path d="M4643 2956 c-188 -31 -359 -179 -414 -358 -37 -117 -39 -173 -37
-783 2 -330 0 -605 -4 -611 -7 -11 -90 -32 -143 -37 -22 -1 -31 -8 -33 -23 -3
-21 -1 -21 240 -22 134 -1 251 1 261 4 9 3 17 14 17 25 0 14 -7 19 -27 19 -15
0 -51 5 -79 12 l-51 12 -7 74 c-7 92 -8 555 0 575 4 12 29 13 145 9 177 -6
245 7 379 72 66 32 179 128 204 175 95 173 97 181 102 536 3 190 1 315 -4 324
-8 11 -17 8 -48 -17 -46 -38 -98 -42 -183 -14 -134 45 -187 50 -318 28z m177
-43 c69 -19 105 -43 136 -91 41 -62 44 -76 70 -315 7 -72 -10 -289 -27 -319
-5 -10 -9 -26 -9 -37 0 -29 -56 -130 -91 -162 -30 -28 -56 -42 -128 -70 -50
-19 -255 -15 -303 5 -47 20 -86 59 -94 94 -3 15 -10 39 -15 53 -13 32 -6 489
8 545 16 65 64 152 113 203 46 48 122 90 162 92 13 0 32 4 43 9 22 11 82 7
135 -7z"/>
<path d="M5974 2941 c-108 -36 -182 -82 -261 -161 -64 -65 -121 -161 -146
-246 -13 -48 -14 -234 0 -290 37 -150 174 -296 330 -349 112 -39 160 -47 283
-47 182 0 252 22 381 117 159 118 239 271 239 458 0 264 -161 455 -445 527
-122 30 -275 27 -381 -9z m260 -45 c149 -39 292 -148 354 -271 48 -95 63 -165
63 -287 0 -148 -27 -236 -98 -314 -35 -38 -116 -94 -137 -94 -8 0 -17 -4 -20
-9 -8 -12 -70 -23 -141 -24 -244 -3 -462 165 -536 413 -18 58 -18 315 -1 332
7 7 12 20 12 30 0 64 126 190 225 226 44 16 215 14 279 -2z"/>
<path d="M7124 2903 c-5 -39 -6 -198 -1 -373 10 -401 0 -607 -32 -617 -62 -20
-120 -47 -115 -54 3 -5 109 -9 235 -9 214 0 230 1 227 18 -3 14 -16 18 -65 20
l-62 3 -15 54 c-13 43 -16 113 -16 378 0 221 4 335 12 358 20 60 61 110 122
152 51 34 70 41 129 47 67 6 98 23 77 44 -14 14 -272 -7 -295 -24 -5 -4 -26
-10 -45 -14 -33 -6 -40 -2 -80 39 -24 25 -49 45 -56 45 -6 0 -15 -28 -20 -67z"/>
<path d="M306 2922 c-5 -8 23 -21 90 -42 23 -7 46 -15 52 -19 13 -8 32 -528
32 -866 -1 -333 -8 -381 -61 -407 -19 -9 -45 -17 -59 -18 -27 -1 -66 -25 -53
-33 12 -7 480 -3 487 4 8 7 -26 23 -89 41 -71 20 -74 33 -74 316 l-1 232 103
0 c143 0 103 30 577 -425 63 -61 140 -130 170 -155 30 -25 57 -47 60 -50 35
-36 213 -151 309 -199 135 -69 366 -97 476 -59 83 29 185 78 185 88 0 14 -28
12 -58 -4 -29 -15 -150 -36 -209 -36 -34 0 -65 6 -158 33 -52 15 -212 98 -290
150 -132 89 -195 145 -515 454 -74 72 -159 152 -187 178 -29 26 -53 55 -53 64
0 9 26 30 62 50 86 47 158 122 198 206 30 63 34 79 34 155 -1 91 -9 118 -58
186 -49 67 -112 107 -225 143 -60 20 -89 21 -402 21 -186 0 -340 -4 -343 -8z
m556 -43 c95 -19 132 -32 181 -64 87 -59 157 -177 157 -269 0 -88 -44 -189
-110 -254 -86 -84 -143 -102 -327 -102 l-143 0 0 310 c0 352 2 360 67 378 52
14 111 14 175 1z"/>
<path d="M1710 2923 c1 -20 20 -31 77 -43 38 -8 65 -19 69 -29 4 -9 10 -171
14 -361 5 -244 11 -354 20 -375 38 -90 61 -125 115 -180 56 -56 74 -68 143
-96 15 -6 35 -15 44 -20 23 -12 263 -12 302 0 17 5 51 15 76 22 106 27 114 33
123 80 4 24 10 91 14 147 5 95 4 104 -12 100 -9 -1 -39 -43 -67 -93 -73 -133
-122 -179 -229 -213 -124 -41 -278 25 -327 138 -33 79 -53 243 -36 306 8 28
34 34 214 44 80 4 160 11 178 15 31 7 33 9 26 39 -3 17 -8 33 -11 36 -3 3 -95
7 -206 10 l-202 5 0 205 0 204 25 7 c14 4 111 7 217 8 l192 1 73 -82 c40 -46
89 -98 108 -117 l35 -35 3 30 c4 27 -7 88 -30 179 -19 76 25 70 -487 73 -253
1 -461 -1 -461 -5z"/>
<path d="M7655 2888 c-15 -22 -14 -24 7 -38 54 -36 112 -98 137 -150 53 -105
56 -132 56 -452 l0 -297 -29 -30 c-22 -23 -39 -31 -75 -33 -34 -2 -47 -7 -49
-20 -3 -17 13 -18 237 -18 232 0 241 1 241 20 0 16 -8 19 -56 22 -55 3 -57 4
-80 46 -23 41 -24 50 -24 249 0 218 -8 295 -43 408 -19 62 -77 167 -110 200
-48 47 -158 115 -188 115 -4 0 -15 -10 -24 -22z"/>
</g>
</svg>
